<?xml version="1.0" encoding="utf-8"?>
<!-- Generator: Adobe Illustrator 19.2.1, SVG Export Plug-In . SVG Version: 6.00 Build 0)  -->
<svg version="1.1" id="Layer_1" xmlns="http://www.w3.org/2000/svg" xmlns:xlink="http://www.w3.org/1999/xlink" x="0px" y="0px"
	 viewBox="0 0 40 34" style="enable-background:new 0 0 40 34;" xml:space="preserve">
<path d="M30.3,3c0.1-0.3,0.5-0.6,0.8-0.6h7.1c0.6,0,1.2-0.5,1.2-1.2c0-0.6-0.5-1.2-1.2-1.2h-7.1c-1.4,0-2.7,1-3.1,2.3l-1.9,6.8
	c-0.2-0.1-0.5-0.1-0.7-0.1H2.6c-0.7,0-1.4,0.3-1.9,0.8c-0.5,0.5-0.7,1.3-0.6,2l1.1,10.9c0.1,1.5,1.4,2.6,2.8,2.6h17.8
	c1.4,0,2.7-1,3.1-2.4l2.2-8.3L30.3,3z M22.6,22.5c-0.1,0.3-0.5,0.6-0.8,0.6H3.9c-0.3,0-0.5-0.2-0.5-0.5L2.3,11.7
	c0-0.1,0-0.1,0.1-0.2c0,0,0.1-0.1,0.2-0.1h22.9c0,0,0,0,0,0c0,0,0,0,0,0L22.6,22.5z"/>
<path d="M7.3,26.8c-2,0-3.6,1.6-3.6,3.6c0,2,1.6,3.6,3.6,3.6c2,0,3.6-1.6,3.6-3.6C10.9,28.4,9.3,26.8,7.3,26.8z M7.3,31.7
	c-0.7,0-1.3-0.6-1.3-1.3c0-0.7,0.6-1.3,1.3-1.3c0.7,0,1.3,0.6,1.3,1.3C8.6,31.1,8,31.7,7.3,31.7z"/>
<path d="M18.7,26.8c-2,0-3.6,1.6-3.6,3.6c0,2,1.6,3.6,3.6,3.6s3.6-1.6,3.6-3.6C22.3,28.4,20.7,26.8,18.7,26.8z M18.7,31.7
	c-0.7,0-1.3-0.6-1.3-1.3c0-0.7,0.6-1.3,1.3-1.3s1.3,0.6,1.3,1.3C20,31.1,19.4,31.7,18.7,31.7z"/>
<path d="M39.2,9.5h-8.3c-0.4,0-0.8,0.3-0.8,0.8c0,0.4,0.3,0.8,0.8,0.8h8.3c0.4,0,0.8-0.3,0.8-0.8C40,9.8,39.7,9.5,39.2,9.5z"/>
<path d="M36.9,13.1h-7.4c-0.4,0-0.8,0.3-0.8,0.8c0,0.4,0.3,0.8,0.8,0.8h7.4c0.4,0,0.8-0.3,0.8-0.8C37.7,13.4,37.3,13.1,36.9,13.1z"
	/>
<path d="M34.9,16.7h-6.3c-0.4,0-0.8,0.3-0.8,0.8c0,0.4,0.3,0.8,0.8,0.8h6.3c0.4,0,0.8-0.3,0.8-0.8C35.7,17,35.3,16.7,34.9,16.7z"/>
</svg>
