<?xml version="1.0" encoding="utf-8"?>
<!-- Generator: Adobe Illustrator 19.2.1, SVG Export Plug-In . SVG Version: 6.00 Build 0)  -->
<svg version="1.1" id="Layer_1" xmlns="http://www.w3.org/2000/svg" xmlns:xlink="http://www.w3.org/1999/xlink" x="0px" y="0px"
	 viewBox="0 0 12 22" style="enable-background:new 0 0 12 22;" xml:space="preserve">
<path d="M-508.5-432l-2.9,0c-3.2,0-5.3,2.1-5.3,5.4v2.5h-2.9c-0.3,0-0.5,0.2-0.5,0.4v3.6c0,0.2,0.2,0.4,0.5,0.4h2.9v9.1
	c0,0.2,0.2,0.4,0.5,0.4h3.8c0.2,0,0.5-0.2,0.5-0.4v-9.1h3.4c0.3,0,0.5-0.2,0.5-0.4l0-3.6c0-0.1,0-0.2-0.1-0.3
	c-0.1-0.1-0.2-0.1-0.3-0.1h-3.4v-2.1c0-1,0.2-1.5,1.6-1.5l1.9,0c0.2,0,0.5-0.2,0.5-0.4v-3.4C-508-431.8-508.2-432-508.5-432z"/>
</svg>
