<?xml version="1.0" encoding="utf-8"?>
<svg xmlns="http://www.w3.org/2000/svg"
	xmlns:xlink="http://www.w3.org/1999/xlink"
	width="12px" height="22px" viewBox="0 0 12 22">
<path fillRule="evenodd" d="M 11.55 0C 11.55 0 8.67-0 8.67-0 5.44-0 3.35 2.12 3.35 5.41 3.35 5.41 3.35 7.91 3.35 7.91 3.35 7.91 0.45 7.91 0.45 7.91 0.2 7.91-0 8.11-0 8.36-0 8.36-0 11.98-0 11.98-0 12.22 0.2 12.42 0.45 12.42 0.45 12.42 3.35 12.42 3.35 12.42 3.35 12.42 3.35 21.55 3.35 21.55 3.35 21.8 3.55 22 3.8 22 3.8 22 7.57 22 7.57 22 7.82 22 8.03 21.8 8.03 21.55 8.03 21.55 8.03 12.42 8.03 12.42 8.03 12.42 11.41 12.42 11.41 12.42 11.66 12.42 11.86 12.22 11.86 11.98 11.86 11.98 11.87 8.36 11.87 8.36 11.87 8.24 11.82 8.13 11.73 8.04 11.65 7.96 11.53 7.91 11.41 7.91 11.41 7.91 8.03 7.91 8.03 7.91 8.03 7.91 8.03 5.79 8.03 5.79 8.03 4.78 8.27 4.26 9.61 4.26 9.61 4.26 11.55 4.26 11.55 4.26 11.8 4.26 12 4.06 12 3.81 12 3.81 12 0.45 12 0.45 12 0.21 11.8 0 11.55 0Z" fill="rgb(255,255,255)"/></svg>