<?xml version="1.0" encoding="utf-8"?>
<!-- Generator: Adobe Illustrator 19.2.1, SVG Export Plug-In . SVG Version: 6.00 Build 0)  -->
<svg version="1.1" id="Layer_1" xmlns="http://www.w3.org/2000/svg" xmlns:xlink="http://www.w3.org/1999/xlink" x="0px" y="0px" fill="white"
	 viewBox="0 0 22 22" style="enable-background:new 0 0 22 22;" xml:space="preserve">
<path d="M22,17.7v-9V4.3C22,1.9,20.1,0,17.8,0H4.3C1.9,0,0,1.9,0,4.3v4.5v9C0,20.1,1.9,22,4.3,22h13.5C20.1,22,22,20.1,22,17.7z
	 M19,2.5l0.5,0V3v3.2l-3.7,0l0-3.7L19,2.5z M7.9,8.7c0.7-1,1.8-1.6,3.1-1.6c1.3,0,2.4,0.6,3.1,1.6c0.5,0.6,0.7,1.4,0.7,2.3
	c0,2.1-1.7,3.9-3.9,3.9c-2.1,0-3.9-1.7-3.9-3.9C7.1,10.2,7.4,9.4,7.9,8.7z M4.3,19.9c-1.2,0-2.1-0.9-2.1-2.1v-9h3.3
	C5.1,9.4,5,10.2,5,11c0,3.3,2.7,6,6,6c3.3,0,6-2.7,6-6c0-0.8-0.2-1.6-0.4-2.3h3.3v9c0,1.2-0.9,2.1-2.1,2.1H4.3z"/>
</svg>
