<?xml version="1.0" encoding="utf-8"?>
<!-- Generator: Adobe Illustrator 19.2.1, SVG Export Plug-In . SVG Version: 6.00 Build 0)  -->
<svg version="1.1" id="Layer_1" xmlns="http://www.w3.org/2000/svg" xmlns:xlink="http://www.w3.org/1999/xlink" x="0px" y="0px" fill="white"
	 viewBox="0 0 141.2 99.4" style="enable-background:new 0 0 141.2 99.4;" xml:space="preserve">
<path fill="white" d="M139.4,25.1c-1.1-3.4-2.5-6.4-4.3-9h0.1c-0.2-0.3-0.4-0.7-0.7-1c-0.8-1.1-1.7-2.1-2.6-3.1c-0.2-0.2-0.3-0.3-0.5-0.5
	c-0.8-0.8-1.6-1.5-2.5-2.2c-0.3-0.3-0.6-0.6-0.9-0.8c-2.6-2-5.4-3.6-8.3-4.9c-2.2-1-4.5-1.7-6.8-2.2c-1.8-0.4-3.7-0.7-5.5-0.9
	C105.3,0.2,95.6,0,95.6,0h-4.7h-31h-0.4c-0.2,0-0.4,0-0.4,0v1.1c0.3,0,0.7,0.1,1,0.1c1.6,0.2,3,0.5,4.3,1c0.7,0.3,1.4,0.6,2,1
	c0.7,0.6,1.3,1.3,1.9,2.2c0.6,0.9,0.9,2.1,1,3.6c0.1,1.5,0.2,2.9,0.3,4.2c0,0.3,0,0.5,0,0.8c0,1.6,0.1,4.1,0.1,5.5
	c0,1.9,0,3.7,0,5.5c0,1.8,0,3.6,0,5.6c0,1.9,0,3.9,0,6.2H28.1c0-0.7,0-2,0-4c0-2,0-4.3,0-6.8c0-2.6,0-5.4,0.1-8.3
	c0-2.9,0.1-5.6,0.2-8.1c0.1-1.6,0.4-3,1.1-4.1C30,4.5,30.7,3.7,31.7,3c0.9-0.6,1.9-1.1,3.1-1.3c1.1-0.3,2.2-0.5,3.2-0.6V0H6.5v1.1
	c1.8,0.2,3.5,0.6,4.9,1.1C12.8,2.7,14,3.6,15,4.8C15.4,5.3,15.8,6,16,6.9c0.2,0.9,0.4,1.9,0.5,3c0.1,1.1,0.2,2.3,0.2,3.6
	c0,1.3,0,2.6,0,3.8v20.8c0,1.9,0,4,0,6.2c0,2.1,0,4.2-0.1,6.3c0,2-0.1,3.9-0.1,5.6c0,1.7-0.1,3.1-0.1,4.1c0,1.1,0,2.3-0.1,3.6
	c-0.1,1.2-0.2,2.4-0.3,3.5c-0.1,1.1-0.2,2-0.4,2.8c-0.2,0.8-0.4,1.4-0.7,1.8c-0.8,1-2.1,1.8-3.7,2.5c-1.6,0.7-3.3,1.2-5.1,1.4V77
	h31.1v-1.1c-1.5-0.1-3-0.5-4.5-1.2c-1.5-0.6-2.7-1.6-3.6-2.8c-0.6-0.8-0.9-2.1-0.9-4.1c-0.1-1.9-0.1-3.9-0.1-6v-23h41.6
	c0,0.7,0,2,0,3.7c0,1.7,0,3.7,0,6c0,0.1,0,0.3,0,0.4c0,0.5,0,1.1,0,1.6c0,2-0.1,3.9-0.1,5.6c0,1.7-0.1,3.1-0.1,4.1
	c0,1.1,0,2.3-0.1,3.5c-0.1,1.2-0.2,2.4-0.3,3.4c-0.1,1.1-0.3,2-0.5,2.9c-0.2,0.9-0.4,1.5-0.8,1.8c-0.8,1-2.1,1.9-3.7,2.6
	c-1.5,0.6-3,1.1-4.5,1.3c-0.3,0-0.5,0.1-0.8,0.1V77H59H91h6.3c3.2,0,6.6-0.2,10-0.7c3.4-0.5,6.8-1.3,10-2.4c3.2-1.1,6.3-2.7,9.2-4.6
	c2.9-1.9,5.4-4.3,7.6-7.3c2.2-2.9,3.9-6.4,5.2-10.5c1.3-4.1,1.9-8.8,1.9-14.1C141.2,32.8,140.6,28.7,139.4,25.1z M122.6,61.2
	c-3.8,6.4-9.4,10.7-17,12.9c-1.6,0.5-3.4,0.8-5.2,1c-1.9,0.2-3.7,0.3-5.4,0.3c-1.9,0-3.9-0.2-6.1-0.6c-2.1-0.4-3.9-1.3-5.3-2.7
	c-0.4-0.4-0.8-1.1-1.1-2c-0.3-0.9-0.5-1.9-0.7-3c-0.1-1.1-0.3-2.2-0.4-3.4c0-0.4-0.1-0.8-0.1-1.2v0c0-2.6,0-4.9-0.1-7.1
	c0-2.1-0.1-4.2-0.1-6.2c0-2,0-3.9,0-5.9c0-0.1,0-0.2,0-0.3c0-2.1,0-15.6,0-26.9c0,0,0,0,0,0c0-0.5,0-1,0-1.5
	c0.1-2.4,0.4-7.3,2.8-9.6c1.4-1.4,3.2-2.3,5.3-2.7c2.1-0.4,4.2-0.6,6.1-0.6c0.8,0,1.6,0.1,2.4,0.1c0.2,0,0.4,0,0.5,0
	c1.7,0.2,3.2,0.4,4.6,0.7c1.5,0.3,2.9,0.7,4.3,1.2c0,0,0,0,0,0c2,0.8,4,1.8,5.8,3.1c3.1,2.2,5.8,4.9,8,8.1c2.2,3.2,4,6.7,5.3,10.6
	c1.3,3.9,1.9,7.9,1.9,12.1C128.2,47,126.4,54.8,122.6,61.2z"/>
<path fill="white" d="M12.4,87.7h-5v0.6c1.3,0.1,1.5,0.2,1.5,1.7v2.7H3.6V90c0-1.5,0.1-1.6,1.4-1.7v-0.6H0v0.6c1.4,0.1,1.6,0.2,1.6,1.7v6.9
	c0,1.5-0.2,1.6-1.5,1.7v0.6h5v-0.6c-1.4-0.1-1.5-0.2-1.5-1.7v-3.4h5.2v3.4c0,1.5-0.1,1.6-1.6,1.7v0.6h5.1v-0.6
	c-1.4-0.1-1.5-0.2-1.5-1.7V90c0-1.5,0.1-1.6,1.5-1.7V87.7z"/>
<path fill="white" d="M19.7,87.4c-3.9,0-6.1,3-6.1,6c0,3.4,2.5,5.9,5.9,5.9c3.3,0,6-2.3,6-6.1C25.5,89.8,22.8,87.4,19.7,87.4z M19.4,88.1
	c2.1,0,3.8,2.1,3.8,5.6c0,3.3-1.5,4.9-3.3,4.9c-2.3,0-3.8-2.5-3.8-5.6C16,89.9,17.5,88.1,19.4,88.1z"/>
<path fill="white" d="M37.5,95.9c-0.9,1.8-1.9,2.7-3.5,2.7c-2.5,0-4.3-2.2-4.3-5.4c0-2.6,1.5-5.1,4.2-5.1c1.6,0,2.8,0.7,3.3,2.7l0.6-0.1
	c-0.1-1-0.2-1.8-0.4-2.8c-0.5-0.1-1.7-0.5-3.2-0.5c-4.1,0-6.9,2.5-6.9,6.1c0,2.8,2,5.8,6.5,5.8c1.2,0,2.8-0.4,3.3-0.5
	c0.3-0.6,0.7-1.9,1-2.8L37.5,95.9z"/>
<path fill="white" d="M51.5,87.7h-5v0.6c1.3,0.1,1.5,0.2,1.5,1.7v2.7h-5.2V90c0-1.5,0.1-1.6,1.4-1.7v-0.6h-5v0.6c1.4,0.1,1.6,0.2,1.6,1.7v6.9
	c0,1.5-0.2,1.6-1.5,1.7v0.6h5v-0.6c-1.4-0.1-1.5-0.2-1.5-1.7v-3.4h5.2v3.4c0,1.5-0.1,1.6-1.6,1.7v0.6h5.1v-0.6
	c-1.4-0.1-1.5-0.2-1.5-1.7V90c0-1.5,0.1-1.6,1.5-1.7V87.7z"/>
<path fill="white" d="M64.8,87.7h-4.3v0.6c1.2,0.1,1.6,0.4,1.7,1c0.1,0.5,0.2,1.2,0.2,2.6v1.7c0,2.9-0.9,4.7-3.1,4.7c-2,0-3-1.6-3-4.3v-3.9
	c0-1.6,0.2-1.7,1.5-1.8v-0.6h-5v0.6c1.3,0.1,1.5,0.2,1.5,1.8v4.2c0,2.1,0.5,3.4,1.5,4.1c0.8,0.6,1.9,0.9,3,0.9
	c1.2,0,2.4-0.4,3.2-1.3c1-1.1,1.3-2.5,1.3-4.5v-1.7c0-1.4,0.1-2.1,0.1-2.6c0.1-0.7,0.5-1,1.5-1V87.7z"/>
<path fill="white" d="M65.7,87.7v0.6c1.3,0.1,1.4,0.2,1.4,1.7v6.8c0,1.5-0.2,1.6-1.6,1.7v0.6H70c2.2,0,4-0.5,5.3-1.5c1.3-1,2.2-2.6,2.2-4.7
	c0-1.7-0.7-2.9-1.5-3.8c-1.1-1.1-2.8-1.5-5-1.5H65.7z M69.2,89.6c0-0.6,0.1-0.8,0.2-1c0.1-0.1,0.5-0.2,1.2-0.2c1.2,0,2.1,0.3,2.9,1
	c1,0.8,1.6,2.2,1.6,4c0,3-1.6,5.1-4.3,5.1c-1.2,0-1.6-0.4-1.6-1.7V89.6z"/>
<path fill="white" d="M90.8,87.7h-4.3v0.6c1.2,0.1,1.6,0.4,1.7,1c0.1,0.5,0.2,1.2,0.2,2.6v1.7c0,2.9-0.9,4.7-3.1,4.7c-2,0-3-1.6-3-4.3v-3.9
	c0-1.6,0.2-1.7,1.5-1.8v-0.6h-5v0.6c1.3,0.1,1.5,0.2,1.5,1.8v4.2c0,2.1,0.5,3.4,1.5,4.1c0.8,0.6,1.9,0.9,3,0.9
	c1.2,0,2.4-0.4,3.2-1.3c1-1.1,1.3-2.5,1.3-4.5v-1.7c0-1.4,0.1-2.1,0.1-2.6c0.1-0.7,0.5-1,1.5-1V87.7z"/>
<path fill="white" d="M104,87.7h-5v0.6c1.3,0.1,1.5,0.2,1.5,1.7v2.7h-5.2V90c0-1.5,0.1-1.6,1.4-1.7v-0.6h-5v0.6c1.4,0.1,1.6,0.2,1.6,1.7v6.9
	c0,1.5-0.2,1.6-1.5,1.7v0.6h5v-0.6c-1.4-0.1-1.5-0.2-1.5-1.7v-3.4h5.2v3.4c0,1.5-0.1,1.6-1.6,1.7v0.6h5.1v-0.6
	c-1.4-0.1-1.5-0.2-1.5-1.7V90c0-1.5,0.1-1.6,1.5-1.7V87.7z"/>
<path fill="white" d="M110.4,99.1v-0.6c-1.4-0.1-1.5-0.2-1.5-1.7V90c0-1.5,0.1-1.6,1.5-1.7v-0.6h-5.1v0.6c1.4,0.1,1.5,0.2,1.5,1.7v6.8
	c0,1.5-0.2,1.6-1.5,1.7v0.6H110.4z"/>
<path fill="white" d="M113.2,99.3c0.7,0,1.2-0.5,1.2-1.2c0-0.7-0.5-1.2-1.2-1.2c-0.7,0-1.2,0.5-1.2,1.2C112,98.8,112.5,99.3,113.2,99.3z"/>
<path fill="white" d="M126.8,98.7c-0.4-0.1-0.7-0.3-1.1-0.8c-0.4-0.4-0.8-0.9-1.4-1.9c-0.5-0.8-1.2-2-1.5-2.5c1.2-0.5,2.2-1.4,2.2-2.9
	c0-1.1-0.5-1.9-1.2-2.3c-0.7-0.5-1.6-0.6-3-0.6h-4.7v0.6c1.3,0.1,1.5,0.2,1.5,1.7v6.9c0,1.5-0.2,1.6-1.6,1.7v0.6h5.1v-0.6
	c-1.4-0.1-1.5-0.3-1.5-1.7v-2.7h0.4c0.7,0,1,0.2,1.3,0.7c0.5,0.9,1.1,1.9,1.6,2.7c0.7,1.1,1.4,1.6,3.3,1.7c0.2,0,0.4,0,0.5,0
	L126.8,98.7z M119.6,93.5v-4.3c0-0.4,0-0.6,0.2-0.7c0.1-0.1,0.4-0.2,0.8-0.2c1.1,0,2.3,0.7,2.3,2.6c0,0.9-0.3,1.6-0.9,2.1
	c-0.4,0.3-1,0.5-1.8,0.5H119.6z"/>
<path fill="white" d="M138.8,87.7h-4.3v0.6c1.2,0.1,1.6,0.4,1.7,1c0.1,0.5,0.2,1.2,0.2,2.6v1.7c0,2.9-0.9,4.7-3.1,4.7c-2,0-3-1.6-3-4.3v-3.9
	c0-1.6,0.2-1.7,1.5-1.8v-0.6h-5v0.6c1.3,0.1,1.5,0.2,1.5,1.8v4.2c0,2.1,0.5,3.4,1.5,4.1c0.8,0.6,1.9,0.9,3,0.9
	c1.2,0,2.4-0.4,3.2-1.3c1-1.1,1.3-2.5,1.3-4.5v-1.7c0-1.4,0.1-2.1,0.1-2.6c0.1-0.7,0.5-1,1.5-1V87.7z"/>
</svg>
