<?xml version="1.0" encoding="utf-8"?>
<svg xmlns="http://www.w3.org/2000/svg"
	xmlns:xlink="http://www.w3.org/1999/xlink"
	width="22px" height="22px" viewBox="0 0 22 22">
<path fillRule="evenodd" d="M 21.73 20.43C 21.73 20.43 16.38 15.08 16.38 15.08 17.69 13.49 18.47 11.45 18.47 9.23 18.47 4.13 14.33-0 9.24-0 4.13-0-0 4.13-0 9.24-0 14.34 4.13 18.47 9.24 18.47 11.45 18.47 13.49 17.69 15.09 16.38 15.09 16.38 20.43 21.73 20.43 21.73 20.79 22.09 21.37 22.09 21.73 21.73 22.09 21.37 22.09 20.79 21.73 20.43 21.73 20.43 21.73 20.43 21.73 20.43ZM 1.83 9.24C 1.83 5.15 5.15 1.84 9.23 1.84 13.32 1.84 16.63 5.15 16.63 9.24 16.63 13.32 13.32 16.63 9.23 16.63 5.15 16.63 1.83 13.32 1.83 9.24 1.83 9.24 1.83 9.24 1.83 9.24Z" fill="rgb(252,252,252)"/></svg>