<?xml version="1.0" encoding="utf-8"?>
<!-- Generator: Adobe Illustrator 19.2.1, SVG Export Plug-In . SVG Version: 6.00 Build 0)  -->
<svg version="1.1" id="Layer_1" xmlns="http://www.w3.org/2000/svg" xmlns:xlink="http://www.w3.org/1999/xlink" x="0px" y="0px" fill="white"
	 viewBox="0 0 22 13" style="enable-background:new 0 0 22 13;" xml:space="preserve">
<path d="M21.9,11.7c0-0.1-0.1-0.1-0.1-0.1c-0.4-0.7-1.1-1.6-2.2-2.6l0,0l0,0l0,0h0c-0.5-0.5-0.8-0.8-0.9-1c-0.2-0.3-0.3-0.6-0.2-1
	c0.1-0.2,0.4-0.8,1-1.6c0.3-0.4,0.6-0.8,0.7-1c1.3-1.8,1.9-3,1.7-3.5l-0.1-0.1c0-0.1-0.2-0.1-0.4-0.2c-0.2-0.1-0.4-0.1-0.7,0l-3.3,0
	c-0.1,0-0.1,0-0.2,0c-0.1,0-0.1,0-0.1,0l-0.1,0l0,0c0,0-0.1,0.1-0.1,0.1c0,0.1-0.1,0.1-0.1,0.2c-0.4,1-0.8,1.8-1.2,2.7
	C15.3,4.2,15,4.6,14.8,5c-0.2,0.4-0.4,0.6-0.6,0.8C14,6,13.9,6.1,13.8,6.2c-0.1,0.1-0.2,0.1-0.3,0.1c-0.1,0-0.1,0-0.2,0
	C13.2,6.2,13.1,6.1,13,6c-0.1-0.1-0.1-0.3-0.1-0.5c0-0.2,0-0.3,0-0.5c0-0.1,0-0.3,0-0.6c0-0.2,0-0.4,0-0.5c0-0.3,0-0.6,0-1
	c0-0.4,0-0.6,0-0.8c0-0.2,0-0.4,0-0.7c0-0.2,0-0.4,0-0.5c0-0.1-0.1-0.3-0.1-0.4c-0.1-0.1-0.1-0.2-0.2-0.3c-0.1-0.1-0.2-0.1-0.4-0.2
	C11.7,0.1,11.2,0,10.6,0C9.2,0,8.3,0.1,7.8,0.3C7.7,0.4,7.5,0.5,7.4,0.6C7.3,0.8,7.3,0.9,7.4,0.9c0.5,0.1,0.8,0.2,1,0.5l0.1,0.1
	c0.1,0.1,0.1,0.3,0.2,0.5C8.6,2.4,8.6,2.7,8.7,3c0,0.6,0,1.1,0,1.5c0,0.4-0.1,0.7-0.1,1c0,0.2-0.1,0.4-0.2,0.6
	C8.3,6.1,8.3,6.2,8.3,6.3c0,0,0,0.1-0.1,0.1C8.1,6.4,8,6.4,7.9,6.4c-0.1,0-0.2-0.1-0.4-0.2C7.3,6.1,7.2,5.9,7,5.7
	C6.9,5.6,6.7,5.3,6.5,4.9C6.3,4.6,6.1,4.2,5.8,3.7L5.6,3.4c-0.1-0.2-0.3-0.5-0.5-1C5,2,4.8,1.6,4.7,1.2C4.6,1,4.5,0.9,4.4,0.8
	l-0.1,0c0,0-0.1-0.1-0.2-0.1C4.1,0.6,4,0.6,3.9,0.6l-3.1,0c-0.3,0-0.5,0.1-0.7,0.2l0,0.1c0,0,0,0.1,0,0.2s0,0.2,0.1,0.3
	c0.5,1.1,1,2.2,1.5,3.2c0.5,1,1,1.9,1.4,2.5c0.4,0.6,0.8,1.2,1.2,1.8C4.6,9.5,4.9,9.8,5,10c0.1,0.2,0.2,0.3,0.3,0.4l0.3,0.3
	c0.2,0.2,0.5,0.4,0.8,0.7c0.4,0.3,0.7,0.5,1.2,0.8c0.4,0.3,0.9,0.5,1.5,0.6c0.6,0.2,1.1,0.2,1.7,0.2h1.3c0.3,0,0.5-0.1,0.6-0.3
	l0-0.1c0,0,0.1-0.1,0.1-0.2c0-0.1,0-0.2,0-0.3c0-0.3,0-0.6,0.1-0.9c0.1-0.3,0.1-0.5,0.2-0.6c0.1-0.1,0.2-0.3,0.2-0.4
	c0.1-0.1,0.2-0.2,0.2-0.2c0,0,0.1,0,0.1,0c0.2-0.1,0.4,0,0.6,0.2c0.2,0.2,0.5,0.4,0.7,0.7c0.2,0.3,0.5,0.6,0.8,0.9
	c0.3,0.3,0.6,0.6,0.8,0.8l0.2,0.1c0.2,0.1,0.4,0.2,0.6,0.3c0.2,0.1,0.5,0.1,0.6,0.1l2.9,0c0.3,0,0.5,0,0.7-0.1
	c0.2-0.1,0.3-0.2,0.3-0.3c0-0.1,0-0.3,0-0.4C21.9,11.9,21.9,11.8,21.9,11.7z"/>
</svg>
